<svg version="1.1" id="Layer_1" xmlns="http://www.w3.org/2000/svg" xmlns:xlink="http://www.w3.org/1999/xlink" x="0px" y="0px"
	 viewBox="0 0 26 26" style="enable-background:new 0 0 26 26;" xml:space="preserve">
<path d="M25.7,24.3l-5.9-5.9c3.7-4.4,3.5-11-0.7-15.1C17,1.2,14.2,0,11.2,0S5.4,1.2,3.3,3.3c-4.4,4.4-4.4,11.5,0,15.9
	c2.1,2.1,4.9,3.3,7.9,3.3c2.7,0,5.2-0.9,7.2-2.6l5.9,5.9c0.3,0.3,0.9,0.3,1.2,0l0.2-0.2C26.1,25.2,26.1,24.7,25.7,24.3z M4.7,17.7
	c-3.6-3.6-3.6-9.4,0-13C6.5,2.9,8.8,2,11.2,2s4.7,0.9,6.5,2.7c3.6,3.6,3.6,9.4,0,13l0,0C14.1,21.3,8.3,21.3,4.7,17.7z"/>
</svg>
